<?xml version="1.0" encoding="iso-8859-1"?>
<!-- Generator: Adobe Illustrator 19.0.0, SVG Export Plug-In . SVG Version: 6.00 Build 0)  -->
<svg version="1.1" id="Capa_1" xmlns="http://www.w3.org/2000/svg" xmlns:xlink="http://www.w3.org/1999/xlink" x="0px" y="0px"
	 viewBox="0 0 482.316 482.316" style="enable-background:new 0 0 482.316 482.316;" xml:space="preserve">
<path style="fill:#B4B9F2;" d="M355.849,38.827c-31.829-0.04-62.356,12.632-84.8,35.2l-28.32,28.32l-28.32-28.32
	c-47.67-46.041-123.639-44.721-169.68,2.949c-44.914,46.503-44.914,120.228,0,166.731l198,198l198-198
	c46.856-46.901,46.819-122.906-0.082-169.762C418.149,51.468,387.651,38.838,355.849,38.827z"/>
<path style="fill:#231F20;" d="M242.729,453.019L39.073,249.363c-50.846-49.113-52.251-130.146-3.138-180.992
	s130.146-52.251,180.992-3.138c1.067,1.03,2.116,2.079,3.146,3.146l22.656,22.656l22.664-22.664
	c50.848-49.111,131.881-47.702,180.992,3.146c47.908,49.603,47.908,128.243,0,177.846L242.729,453.019z M129.609,46.827
	c-61.878,0.049-112,50.25-111.952,112.128c0.023,29.653,11.801,58.087,32.752,79.072l192.32,192.368l192.344-192.344
	c43.719-43.79,43.661-114.73-0.128-158.448c-20.985-20.951-49.419-32.728-79.072-32.752c-29.71-0.087-58.214,11.746-79.128,32.848
	l-34.016,33.96l-33.976-33.976C187.834,58.578,159.325,46.742,129.609,46.827z"/>
<g>
</g>
<g>
</g>
<g>
</g>
<g>
</g>
<g>
</g>
<g>
</g>
<g>
</g>
<g>
</g>
<g>
</g>
<g>
</g>
<g>
</g>
<g>
</g>
<g>
</g>
<g>
</g>
<g>
</g>
</svg>
