<?xml version="1.0" encoding="iso-8859-1"?>
<!-- Generator: Adobe Illustrator 19.0.0, SVG Export Plug-In . SVG Version: 6.00 Build 0)  -->
<svg version="1.1" id="Capa_1" xmlns="http://www.w3.org/2000/svg" xmlns:xlink="http://www.w3.org/1999/xlink" x="0px" y="0px"
	 viewBox="0 0 480 480" style="enable-background:new 0 0 480 480;" xml:space="preserve">
<path style="fill:#7C84E8;" d="M288,367.76c74.981-26.51,114.274-108.784,87.764-183.764S266.981,69.721,192,96.231
	S77.726,205.015,104.235,279.996c14.499,41.008,46.756,73.266,87.765,87.764V392h96V367.76z M336,232
	c-0.057-52.996-43.004-95.943-96-96C292.996,136.057,335.943,179.004,336,232z"/>
<path style="fill:#2B3990;" d="M272,472v-32h16v-48h-96v48h16v32H272z"/>
<g>
	<path style="fill:#231F20;" d="M336,240c-4.418,0-8-3.582-8-8c-0.057-48.577-39.423-87.943-88-88c-4.418,0-8-3.582-8-8s3.582-8,8-8
		c57.41,0.066,103.934,46.59,104,104C344,236.418,340.418,240,336,240z"/>
	<path id="SVGCleanerId_0" style="fill:#231F20;" d="M240,64c-4.418,0-8-3.582-8-8V8c0-4.418,3.582-8,8-8s8,3.582,8,8v48
		C248,60.418,244.418,64,240,64z"/>
	<g>
		<path id="SVGCleanerId_0_1_" style="fill:#231F20;" d="M240,64c-4.418,0-8-3.582-8-8V8c0-4.418,3.582-8,8-8s8,3.582,8,8v48
			C248,60.418,244.418,64,240,64z"/>
	</g>
	<path id="SVGCleanerId_1" style="fill:#231F20;" d="M115.552,115.544c-2.123,0.006-4.16-0.838-5.656-2.344L75.952,79.264
		c-3.069-3.178-2.981-8.243,0.197-11.312c3.1-2.994,8.015-2.994,11.115,0l33.944,33.936c3.124,3.125,3.123,8.19-0.002,11.314
		C119.707,114.701,117.673,115.544,115.552,115.544L115.552,115.544z"/>
	<g>
		<path id="SVGCleanerId_1_1_" style="fill:#231F20;" d="M115.552,115.544c-2.123,0.006-4.16-0.838-5.656-2.344L75.952,79.264
			c-3.069-3.178-2.981-8.243,0.197-11.312c3.1-2.994,8.015-2.994,11.115,0l33.944,33.936c3.124,3.125,3.123,8.19-0.002,11.314
			C119.707,114.701,117.673,115.544,115.552,115.544L115.552,115.544z"/>
	</g>
	<path id="SVGCleanerId_2" style="fill:#231F20;" d="M64,240H16c-4.418,0-8-3.582-8-8s3.582-8,8-8h48c4.418,0,8,3.582,8,8
		S68.418,240,64,240z"/>
	<g>
		<path id="SVGCleanerId_2_1_" style="fill:#231F20;" d="M64,240H16c-4.418,0-8-3.582-8-8s3.582-8,8-8h48c4.418,0,8,3.582,8,8
			S68.418,240,64,240z"/>
	</g>
	<path id="SVGCleanerId_3" style="fill:#231F20;" d="M81.6,398.4c-4.418-0.001-7.999-3.583-7.998-8.002
		c0-2.121,0.843-4.154,2.342-5.654l33.944-33.936c3.178-3.069,8.243-2.982,11.312,0.196c2.994,3.1,2.994,8.015,0,11.116
		l-33.944,33.936C85.756,397.556,83.722,398.4,81.6,398.4z"/>
	<g>
		<path id="SVGCleanerId_3_1_" style="fill:#231F20;" d="M81.6,398.4c-4.418-0.001-7.999-3.583-7.998-8.002
			c0-2.121,0.843-4.154,2.342-5.654l33.944-33.936c3.178-3.069,8.243-2.982,11.312,0.196c2.994,3.1,2.994,8.015,0,11.116
			l-33.944,33.936C85.756,397.556,83.722,398.4,81.6,398.4z"/>
	</g>
	<path id="SVGCleanerId_4" style="fill:#231F20;" d="M398.4,398.4c-2.122,0-4.156-0.844-5.656-2.344L358.8,362.12
		c-3.07-3.178-2.982-8.242,0.196-11.312c3.1-2.995,8.016-2.995,11.116,0l33.944,33.936c3.124,3.125,3.123,8.19-0.002,11.314
		C402.555,397.557,400.521,398.4,398.4,398.4z"/>
	<g>
		<path id="SVGCleanerId_4_1_" style="fill:#231F20;" d="M398.4,398.4c-2.122,0-4.156-0.844-5.656-2.344L358.8,362.12
			c-3.07-3.178-2.982-8.242,0.196-11.312c3.1-2.995,8.016-2.995,11.116,0l33.944,33.936c3.124,3.125,3.123,8.19-0.002,11.314
			C402.555,397.557,400.521,398.4,398.4,398.4z"/>
	</g>
	<path id="SVGCleanerId_5" style="fill:#231F20;" d="M464,240h-48c-4.418,0-8-3.582-8-8s3.582-8,8-8h48c4.418,0,8,3.582,8,8
		S468.418,240,464,240z"/>
	<g>
		<path id="SVGCleanerId_5_1_" style="fill:#231F20;" d="M464,240h-48c-4.418,0-8-3.582-8-8s3.582-8,8-8h48c4.418,0,8,3.582,8,8
			S468.418,240,464,240z"/>
	</g>
	<path id="SVGCleanerId_6" style="fill:#231F20;" d="M364.448,115.544c-4.418-0.001-7.999-3.583-7.998-8.002
		c0-2.121,0.843-4.154,2.342-5.654l33.944-33.936c3.178-3.069,8.242-2.982,11.312,0.196c2.994,3.1,2.994,8.015,0,11.116
		L370.104,113.2C368.608,114.706,366.571,115.55,364.448,115.544z"/>
	<g>
		<path id="SVGCleanerId_6_1_" style="fill:#231F20;" d="M364.448,115.544c-4.418-0.001-7.999-3.583-7.998-8.002
			c0-2.121,0.843-4.154,2.342-5.654l33.944-33.936c3.178-3.069,8.242-2.982,11.312,0.196c2.994,3.1,2.994,8.015,0,11.116
			L370.104,113.2C368.608,114.706,366.571,115.55,364.448,115.544z"/>
	</g>
	<path style="fill:#231F20;" d="M240,80c-83.947,0.006-151.995,68.063-151.989,152.011c0.004,62.323,38.052,118.328,95.989,141.293
		V440c0,4.418,3.582,8,8,8h8v24c0,4.418,3.582,8,8,8h64c4.418,0,8-3.582,8-8v-24h8c4.418,0,8-3.582,8-8v-66.696
		c78.04-30.934,116.227-119.275,85.293-197.315C358.328,118.052,302.323,80.004,240,80L240,80z M272,432c-4.418,0-8,3.582-8,8v24
		h-48v-24c0-4.418-3.582-8-8-8h-8v-32h80v32H272z M285.336,360.208c-3.201,1.13-5.34,4.158-5.336,7.552V384h-80v-16.24
		c0.004-3.394-2.135-6.422-5.336-7.552c-70.815-25.038-107.923-102.743-82.885-173.557s102.743-107.923,173.557-82.885
		s107.923,102.743,82.885,173.557C354.528,316.051,324.064,346.515,285.336,360.208z"/>
</g>
<g>
</g>
<g>
</g>
<g>
</g>
<g>
</g>
<g>
</g>
<g>
</g>
<g>
</g>
<g>
</g>
<g>
</g>
<g>
</g>
<g>
</g>
<g>
</g>
<g>
</g>
<g>
</g>
<g>
</g>
</svg>
