<?xml version="1.0" encoding="iso-8859-1"?>
<!-- Generator: Adobe Illustrator 19.0.0, SVG Export Plug-In . SVG Version: 6.00 Build 0)  -->
<svg version="1.1" id="Capa_1" xmlns="http://www.w3.org/2000/svg" xmlns:xlink="http://www.w3.org/1999/xlink" x="0px" y="0px"
	 viewBox="0 0 512 512" style="enable-background:new 0 0 512 512;" xml:space="preserve">
<path style="fill:#FFFFFF;" d="M482,502H126c-11.046,0-20-8.954-20-20V30c0-11.046,8.954-20,20-20h356c11.046,0,20,8.954,20,20v452
	C502,493.046,493.046,502,482,502z"/>
<circle style="fill:#A5DDFF;" cx="263.98" cy="195.69" r="145.69"/>
<circle style="fill:#FFFFFF;" cx="263.98" cy="195.69" r="97.92"/>
<path style="fill:#58BFFF;" d="M181.223,318.973L58.926,441.271c-11.192,11.193-29.339,11.193-40.532,0l0,0
	c-11.192-11.193-11.192-29.339,0-40.532l122.297-122.297L181.223,318.973z"/>
<path style="fill:#FFCDAC;" d="M295.024,183.15v7.762c0,17.148-13.901,31.049-31.049,31.049l0,0l0,0
	c-17.148,0-31.049-13.901-31.049-31.049v-7.762c0-17.148,13.901-31.049,31.049-31.049l0,0
	C281.123,152.102,295.024,166.003,295.024,183.15z"/>
<path style="fill:#FFBC53;" d="M263.976,221.961L263.976,221.961c-30.309,0-56.203,18.828-66.673,45.418
	c17.483,16.267,40.909,26.232,66.673,26.232s49.19-9.965,66.673-26.232C320.178,240.789,294.284,221.961,263.976,221.961z"/>
<path d="M482,0H126c-16.542,0-30,13.458-30,30v34c0,5.522,4.477,10,10,10s10-4.478,10-10V30c0-5.514,4.486-10,10-10h356
	c5.514,0,10,4.486,10,10v452c0,5.514-4.486,10-10,10H126c-5.514,0-10-4.486-10-10v-32.335c0-5.522-4.477-10-10-10s-10,4.478-10,10
	V482c0,16.542,13.458,30,30,30h356c16.542,0,30-13.458,30-30V30C512,13.458,498.542,0,482,0z"/>
<path d="M433.893,386h-240c-5.523,0-10,4.478-10,10s4.477,10,10,10h240c5.523,0,10-4.478,10-10S439.416,386,433.893,386z"/>
<path d="M433.89,438c-2.63,0-5.21,1.069-7.07,2.93s-2.93,4.44-2.93,7.07s1.07,5.21,2.93,7.069c1.86,1.86,4.44,2.931,7.07,2.931
	c2.64,0,5.21-1.07,7.07-2.931c1.86-1.859,2.93-4.439,2.93-7.069s-1.07-5.21-2.93-7.07C439.1,439.069,436.53,438,433.89,438z"/>
<path d="M193.893,438c-5.523,0-10,4.478-10,10s4.477,10,10,10H393c5.523,0,10-4.478,10-10s-4.477-10-10-10H193.893z"/>
<path d="M189.97,274.165c0.355,0.385,0.737,0.747,1.155,1.075c19.212,17.609,44.797,28.371,72.851,28.371
	s53.638-10.763,72.851-28.371c0.418-0.328,0.8-0.691,1.155-1.075c20.869-19.691,33.917-47.587,33.917-78.475
	c0-59.509-48.414-107.923-107.922-107.923S156.055,136.181,156.055,195.69C156.053,226.578,169.101,254.474,189.97,274.165z
	 M209.532,264.678c10.616-20.082,31.301-32.717,54.444-32.717s43.828,12.635,54.444,32.717
	c-14.984,11.85-33.901,18.933-54.444,18.933S224.516,276.528,209.532,264.678z M242.927,190.913v-7.763
	c0-11.606,9.442-21.049,21.048-21.049c11.606,0,21.048,9.442,21.048,21.049v7.763c0,11.605-9.442,21.048-21.048,21.048
	S242.927,202.519,242.927,190.913z M263.976,107.767c48.48,0,87.922,39.442,87.922,87.923c0,20.495-7.05,39.374-18.851,54.341
	c-9.153-14.599-22.546-25.733-38.221-32.084c6.341-7.227,10.198-16.686,10.198-27.033v-7.763c0-22.635-18.414-41.049-41.048-41.049
	s-41.048,18.414-41.048,41.049v7.763c0,10.347,3.857,19.806,10.198,27.033c-15.675,6.352-29.068,17.485-38.221,32.084
	c-11.801-14.967-18.851-33.846-18.851-54.341C176.053,147.209,215.495,107.767,263.976,107.767z"/>
<path d="M263.976,351.379c85.848,0,155.689-69.842,155.689-155.689S349.823,40,263.976,40s-155.689,69.842-155.689,155.689
	c0,49.633,23.346,93.917,59.633,122.445L51.854,434.199c-7.275,7.275-19.113,7.275-26.389,0c-3.524-3.524-5.465-8.21-5.465-13.194
	s1.941-9.67,5.466-13.194l59.36-59.36c3.905-3.905,3.905-10.237,0-14.143c-3.905-3.904-10.237-3.904-14.142,0l-59.359,59.36
	C4.021,400.97,0,410.679,0,421.005s4.021,20.035,11.323,27.337c7.537,7.536,17.437,11.305,27.337,11.305s19.8-3.769,27.337-11.305
	l118.707-118.707C207.938,343.438,235.045,351.379,263.976,351.379z M128.286,195.689C128.286,120.87,189.156,60,263.976,60
	s135.689,60.87,135.689,135.689s-60.87,135.689-135.689,135.689S128.286,270.509,128.286,195.689z"/>
<path d="M116.3,316.97c1.87-1.86,2.93-4.439,2.93-7.07c0-2.63-1.06-5.21-2.93-7.069c-1.86-1.86-4.43-2.931-7.07-2.931
	c-2.63,0-5.21,1.07-7.07,2.931c-1.86,1.859-2.93,4.439-2.93,7.069c0,2.631,1.07,5.21,2.93,7.07c1.86,1.86,4.44,2.93,7.07,2.93
	C111.87,319.899,114.44,318.83,116.3,316.97z"/>
<g>
</g>
<g>
</g>
<g>
</g>
<g>
</g>
<g>
</g>
<g>
</g>
<g>
</g>
<g>
</g>
<g>
</g>
<g>
</g>
<g>
</g>
<g>
</g>
<g>
</g>
<g>
</g>
<g>
</g>
</svg>
